<?xml version="1.0" encoding="UTF-8" standalone="no" ?>
<!DOCTYPE svg PUBLIC "-//W3C//DTD SVG 1.1//EN" "http://www.w3.org/Graphics/SVG/1.1/DTD/svg11.dtd">
<svg xmlns="http://www.w3.org/2000/svg" xmlns:xlink="http://www.w3.org/1999/xlink" version="1.1" width="640" height="640" viewBox="0 0 640 640" xml:space="preserve">
<desc>Created with Fabric.js 5.3.0</desc>
<defs>
</defs>
<g transform="matrix(5.216972474 0 0 0.7559997339 508.9465814847 212.5292430922)" id="dZglLLKYmlVzTrfH7vqyy"  >
<path style="stroke: rgb(214,67,118); stroke-width: 0; stroke-dasharray: none; stroke-linecap: butt; stroke-dashoffset: 0; stroke-linejoin: miter; stroke-miterlimit: 4; fill: rgb(220,219,219); fill-rule: nonzero; opacity: 1;"  transform=" translate(0, 0)" d="M -5.95238 -5.83104 C -5.95238 -5.89806 -5.94451 -5.952389999999999 -5.9348 -5.952389999999999 L 5.9348 -5.952389999999999 L 5.9348 -5.952389999999999 C 5.94451 -5.952389999999999 5.95238 -5.898059999999999 5.95238 -5.83104 L 5.95238 5.95238 L -5.952389999999999 5.95238 z" stroke-linecap="round" />
</g>
<g transform="matrix(26.5533251513 0 0 0.531066503 320.1328389117 212.4999982818)" id="r-1wlW8sRvXV4zpMVcHov"  >
<path style="stroke: rgb(188,176,32); stroke-width: 0; stroke-dasharray: none; stroke-linecap: butt; stroke-dashoffset: 0; stroke-linejoin: miter; stroke-miterlimit: 4; fill: rgb(220,219,219); fill-rule: nonzero; opacity: 1;"  transform=" translate(0, 0)" d="M -5.64901 -3.76601 C -5.64901 -4.80596 -5.632149999999999 -5.6490100000000005 -5.61135 -5.6490100000000005 L 5.61135 -5.6490100000000005 L 5.61135 -5.6490100000000005 C 5.63215 -5.6490100000000005 5.64901 -4.805960000000001 5.64901 -3.7660100000000005 L 5.64901 5.64901 L -5.64901 5.64901 z" stroke-linecap="round" />
</g>
<g transform="matrix(0.6148458464 0 0 1.2037508617 473.9721131145 212)" id="oEp1r1_VyYhDKn3Dw8bW3"  >
<path style="stroke: rgb(11,234,154); stroke-width: 0; stroke-dasharray: none; stroke-linecap: butt; stroke-dashoffset: 0; stroke-linejoin: miter; stroke-miterlimit: 4; fill: rgb(179,179,179); fill-rule: nonzero; opacity: 1;"  transform=" translate(0, 0)" d="M -6.64589 -5.81516 C -6.64589 -6.27396 -5.917719999999999 -6.645899999999999 -5.01947 -6.645899999999999 L 5.01947 -6.645899999999999 L 5.01947 -6.645899999999999 C 5.91772 -6.645899999999999 6.64589 -6.273969999999999 6.64589 -5.815159999999999 L 6.64589 6.645890000000001 L -6.645900000000001 6.645890000000001 z" stroke-linecap="round" />
</g>
<g transform="matrix(0.6148458464 0 0 1.2037508617 166.2190279045 212)" id="O-xGJRxNgjO6GDiA88YLH"  >
<path style="stroke: rgb(11,234,154); stroke-width: 0; stroke-dasharray: none; stroke-linecap: butt; stroke-dashoffset: 0; stroke-linejoin: miter; stroke-miterlimit: 4; fill: rgb(179,179,179); fill-rule: nonzero; opacity: 1;"  transform=" translate(0, 0)" d="M -6.64589 -6.59051 C -6.64589 -6.6211 -6.59735 -6.6458900000000005 -6.537459999999999 -6.6458900000000005 L 6.537470000000001 -6.6458900000000005 L 6.537470000000001 -6.6458900000000005 C 6.5973500000000005 -6.6458900000000005 6.645900000000001 -6.621090000000001 6.645900000000001 -6.59051 L 6.645900000000001 6.64589 L -6.64589 6.64589 z" stroke-linecap="round" />
</g>
<g transform="matrix(5.216972474 0 0 0.7559997339 131.1634646055 212.2256180177)" id="U7bE7OlhJ4yJi66uevhs1"  >
<path style="stroke: rgb(214,67,118); stroke-width: 0; stroke-dasharray: none; stroke-linecap: butt; stroke-dashoffset: 0; stroke-linejoin: miter; stroke-miterlimit: 4; fill: rgb(220,219,219); fill-rule: nonzero; opacity: 1;"  transform=" translate(0.000005, 0.000005)" d="M -5.95238 -5.83104 C -5.95238 -5.89806 -5.94451 -5.952389999999999 -5.9348 -5.952389999999999 L 5.9348 -5.952389999999999 L 5.9348 -5.952389999999999 C 5.94451 -5.952389999999999 5.95238 -5.898059999999999 5.95238 -5.83104 L 5.95238 5.95238 L -5.952389999999999 5.95238 z" stroke-linecap="round" />
</g>
<g transform="matrix(6.4799981106 0 0 0.9719997166 280 212.5073146206)" id="fDPLiyLwO6Vjc4J6BpZaU"  >
<path style="stroke: rgb(14,208,192); stroke-width: 0; stroke-dasharray: none; stroke-linecap: butt; stroke-dashoffset: 0; stroke-linejoin: miter; stroke-miterlimit: 4; fill: rgb(190,190,190); fill-rule: nonzero; opacity: 1;"  transform=" translate(0, 0)" d="M -3.08642 -1.77696 C -3.08642 -2.50015 -2.99848 -3.0864200000000004 -2.89 -3.0864200000000004 L 2.89 -3.0864200000000004 L 2.89 -3.0864200000000004 C 2.9984800000000003 -3.0864200000000004 3.08642 -2.50016 3.08642 -1.7769600000000003 L 3.08642 1.7769699999999995 L 3.08642 1.7769699999999995 C 3.08642 2.5001599999999993 2.99848 3.0864299999999996 2.89 3.0864299999999996 L -2.89 3.0864299999999996 L -2.89 3.0864299999999996 C -2.9984800000000003 3.0864299999999996 -3.08642 2.50017 -3.08642 1.7769699999999995 z" stroke-linecap="round" />
</g>
<g transform="matrix(0.3239999055 0 0 0.9719997166 220 212.4921855315)" id="66ChM9eskUgd-V3ToQ6RO"  >
<path style="stroke: rgb(14,208,192); stroke-width: 0; stroke-dasharray: none; stroke-linecap: butt; stroke-dashoffset: 0; stroke-linejoin: miter; stroke-miterlimit: 4; fill: rgb(190,190,190); fill-rule: nonzero; opacity: 1;"  transform=" translate(0, 0)" d="M -3.08642 -2.95762 C -3.08642 -3.02875 -2.91342 -3.08642 -2.70002 -3.08642 L 2.7000300000000004 -3.08642 L 2.7000300000000004 -3.08642 C 2.9134300000000004 -3.08642 3.0864300000000005 -3.02875 3.0864300000000005 -2.95762 L 3.0864300000000005 2.95762 L 3.0864300000000005 2.95762 C 3.0864300000000005 3.02875 2.9134300000000004 3.08642 2.7000300000000004 3.08642 L -2.70002 3.08642 L -2.70002 3.08642 C -2.91342 3.08642 -3.08642 3.02875 -3.08642 2.95762 z" stroke-linecap="round" />
</g>
<g transform="matrix(0.3239999055 0 0 0.9719997166 420 212.5039616188)" id="mtO4IcG6RY14ZK6ALbQ4c"  >
<path style="stroke: rgb(14,208,192); stroke-width: 0; stroke-dasharray: none; stroke-linecap: butt; stroke-dashoffset: 0; stroke-linejoin: miter; stroke-miterlimit: 4; fill: rgb(190,190,190); fill-rule: nonzero; opacity: 1;"  transform=" translate(0, 0)" d="M -3.08642 -2.95762 C -3.08642 -3.02875 -2.91342 -3.08642 -2.70002 -3.08642 L 2.7000300000000004 -3.08642 L 2.7000300000000004 -3.08642 C 2.9134300000000004 -3.08642 3.0864300000000005 -3.02875 3.0864300000000005 -2.95762 L 3.0864300000000005 2.95762 L 3.0864300000000005 2.95762 C 3.0864300000000005 3.02875 2.9134300000000004 3.08642 2.7000300000000004 3.08642 L -2.70002 3.08642 L -2.70002 3.08642 C -2.91342 3.08642 -3.08642 3.02875 -3.08642 2.95762 z" stroke-linecap="round" />
</g>
<g transform="matrix(6.4799981106 0 0 0.9719997166 359.9999957685 212.6311023077)" id="2lOr_gnwyaMCwW1XRQ5lZ"  >
<path style="stroke: rgb(14,208,192); stroke-width: 0; stroke-dasharray: none; stroke-linecap: butt; stroke-dashoffset: 0; stroke-linejoin: miter; stroke-miterlimit: 4; fill: rgb(190,190,190); fill-rule: nonzero; opacity: 1;"  transform=" translate(0, -0.000005)" d="M -3.08642 -1.77696 C -3.08642 -2.50015 -2.99848 -3.0864200000000004 -2.89 -3.0864200000000004 L 2.89 -3.0864200000000004 L 2.89 -3.0864200000000004 C 2.9984800000000003 -3.0864200000000004 3.08642 -2.50016 3.08642 -1.7769600000000003 L 3.08642 1.7769699999999995 L 3.08642 1.7769699999999995 C 3.08642 2.5001599999999993 2.99848 3.0864299999999996 2.89 3.0864299999999996 L -2.89 3.0864299999999996 L -2.89 3.0864299999999996 C -2.9984800000000003 3.0864299999999996 -3.08642 2.50017 -3.08642 1.7769699999999995 z" stroke-linecap="round" />
</g>
</svg>